<svg xmlns="http://www.w3.org/2000/svg" viewBox="0 0 1600 1000">
<rect width="1600" height="1000" fill="#1c1610"/>
<rect x="-90" y="0" width="172" height="92" rx="4" fill="#241d15" stroke="#17110b" stroke-width="3"/>
<rect x="90" y="0" width="172" height="92" rx="4" fill="#241d15" stroke="#17110b" stroke-width="3"/>
<rect x="270" y="0" width="172" height="92" rx="4" fill="#241d15" stroke="#17110b" stroke-width="3"/>
<rect x="450" y="0" width="172" height="92" rx="4" fill="#241d15" stroke="#17110b" stroke-width="3"/>
<rect x="630" y="0" width="172" height="92" rx="4" fill="#241d15" stroke="#17110b" stroke-width="3"/>
<rect x="810" y="0" width="172" height="92" rx="4" fill="#241d15" stroke="#17110b" stroke-width="3"/>
<rect x="990" y="0" width="172" height="92" rx="4" fill="#241d15" stroke="#17110b" stroke-width="3"/>
<rect x="1170" y="0" width="172" height="92" rx="4" fill="#241d15" stroke="#17110b" stroke-width="3"/>
<rect x="1350" y="0" width="172" height="92" rx="4" fill="#241d15" stroke="#17110b" stroke-width="3"/>
<rect x="0" y="100" width="172" height="92" rx="4" fill="#241d15" stroke="#17110b" stroke-width="3"/>
<rect x="180" y="100" width="172" height="92" rx="4" fill="#241d15" stroke="#17110b" stroke-width="3"/>
<rect x="360" y="100" width="172" height="92" rx="4" fill="#241d15" stroke="#17110b" stroke-width="3"/>
<rect x="540" y="100" width="172" height="92" rx="4" fill="#241d15" stroke="#17110b" stroke-width="3"/>
<rect x="720" y="100" width="172" height="92" rx="4" fill="#241d15" stroke="#17110b" stroke-width="3"/>
<rect x="900" y="100" width="172" height="92" rx="4" fill="#241d15" stroke="#17110b" stroke-width="3"/>
<rect x="1080" y="100" width="172" height="92" rx="4" fill="#241d15" stroke="#17110b" stroke-width="3"/>
<rect x="1260" y="100" width="172" height="92" rx="4" fill="#241d15" stroke="#17110b" stroke-width="3"/>
<rect x="1440" y="100" width="172" height="92" rx="4" fill="#241d15" stroke="#17110b" stroke-width="3"/>
<rect x="-90" y="200" width="172" height="92" rx="4" fill="#241d15" stroke="#17110b" stroke-width="3"/>
<rect x="90" y="200" width="172" height="92" rx="4" fill="#241d15" stroke="#17110b" stroke-width="3"/>
<rect x="270" y="200" width="172" height="92" rx="4" fill="#241d15" stroke="#17110b" stroke-width="3"/>
<rect x="450" y="200" width="172" height="92" rx="4" fill="#241d15" stroke="#17110b" stroke-width="3"/>
<rect x="630" y="200" width="172" height="92" rx="4" fill="#241d15" stroke="#17110b" stroke-width="3"/>
<rect x="810" y="200" width="172" height="92" rx="4" fill="#241d15" stroke="#17110b" stroke-width="3"/>
<rect x="990" y="200" width="172" height="92" rx="4" fill="#241d15" stroke="#17110b" stroke-width="3"/>
<rect x="1170" y="200" width="172" height="92" rx="4" fill="#241d15" stroke="#17110b" stroke-width="3"/>
<rect x="1350" y="200" width="172" height="92" rx="4" fill="#241d15" stroke="#17110b" stroke-width="3"/>
<rect x="0" y="300" width="172" height="92" rx="4" fill="#241d15" stroke="#17110b" stroke-width="3"/>
<rect x="180" y="300" width="172" height="92" rx="4" fill="#241d15" stroke="#17110b" stroke-width="3"/>
<rect x="360" y="300" width="172" height="92" rx="4" fill="#241d15" stroke="#17110b" stroke-width="3"/>
<rect x="540" y="300" width="172" height="92" rx="4" fill="#241d15" stroke="#17110b" stroke-width="3"/>
<rect x="720" y="300" width="172" height="92" rx="4" fill="#241d15" stroke="#17110b" stroke-width="3"/>
<rect x="900" y="300" width="172" height="92" rx="4" fill="#241d15" stroke="#17110b" stroke-width="3"/>
<rect x="1080" y="300" width="172" height="92" rx="4" fill="#241d15" stroke="#17110b" stroke-width="3"/>
<rect x="1260" y="300" width="172" height="92" rx="4" fill="#241d15" stroke="#17110b" stroke-width="3"/>
<rect x="1440" y="300" width="172" height="92" rx="4" fill="#241d15" stroke="#17110b" stroke-width="3"/>
<rect x="-90" y="400" width="172" height="92" rx="4" fill="#241d15" stroke="#17110b" stroke-width="3"/>
<rect x="90" y="400" width="172" height="92" rx="4" fill="#241d15" stroke="#17110b" stroke-width="3"/>
<rect x="270" y="400" width="172" height="92" rx="4" fill="#241d15" stroke="#17110b" stroke-width="3"/>
<rect x="450" y="400" width="172" height="92" rx="4" fill="#241d15" stroke="#17110b" stroke-width="3"/>
<rect x="630" y="400" width="172" height="92" rx="4" fill="#241d15" stroke="#17110b" stroke-width="3"/>
<rect x="810" y="400" width="172" height="92" rx="4" fill="#241d15" stroke="#17110b" stroke-width="3"/>
<rect x="990" y="400" width="172" height="92" rx="4" fill="#241d15" stroke="#17110b" stroke-width="3"/>
<rect x="1170" y="400" width="172" height="92" rx="4" fill="#241d15" stroke="#17110b" stroke-width="3"/>
<rect x="1350" y="400" width="172" height="92" rx="4" fill="#241d15" stroke="#17110b" stroke-width="3"/>
<rect x="0" y="500" width="172" height="92" rx="4" fill="#241d15" stroke="#17110b" stroke-width="3"/>
<rect x="180" y="500" width="172" height="92" rx="4" fill="#241d15" stroke="#17110b" stroke-width="3"/>
<rect x="360" y="500" width="172" height="92" rx="4" fill="#241d15" stroke="#17110b" stroke-width="3"/>
<rect x="540" y="500" width="172" height="92" rx="4" fill="#241d15" stroke="#17110b" stroke-width="3"/>
<rect x="720" y="500" width="172" height="92" rx="4" fill="#241d15" stroke="#17110b" stroke-width="3"/>
<rect x="900" y="500" width="172" height="92" rx="4" fill="#241d15" stroke="#17110b" stroke-width="3"/>
<rect x="1080" y="500" width="172" height="92" rx="4" fill="#241d15" stroke="#17110b" stroke-width="3"/>
<rect x="1260" y="500" width="172" height="92" rx="4" fill="#241d15" stroke="#17110b" stroke-width="3"/>
<rect x="1440" y="500" width="172" height="92" rx="4" fill="#241d15" stroke="#17110b" stroke-width="3"/>
<rect x="-90" y="600" width="172" height="92" rx="4" fill="#241d15" stroke="#17110b" stroke-width="3"/>
<rect x="90" y="600" width="172" height="92" rx="4" fill="#241d15" stroke="#17110b" stroke-width="3"/>
<rect x="270" y="600" width="172" height="92" rx="4" fill="#241d15" stroke="#17110b" stroke-width="3"/>
<rect x="450" y="600" width="172" height="92" rx="4" fill="#241d15" stroke="#17110b" stroke-width="3"/>
<rect x="630" y="600" width="172" height="92" rx="4" fill="#241d15" stroke="#17110b" stroke-width="3"/>
<rect x="810" y="600" width="172" height="92" rx="4" fill="#241d15" stroke="#17110b" stroke-width="3"/>
<rect x="990" y="600" width="172" height="92" rx="4" fill="#241d15" stroke="#17110b" stroke-width="3"/>
<rect x="1170" y="600" width="172" height="92" rx="4" fill="#241d15" stroke="#17110b" stroke-width="3"/>
<rect x="1350" y="600" width="172" height="92" rx="4" fill="#241d15" stroke="#17110b" stroke-width="3"/>
<rect x="0" y="700" width="172" height="92" rx="4" fill="#241d15" stroke="#17110b" stroke-width="3"/>
<rect x="180" y="700" width="172" height="92" rx="4" fill="#241d15" stroke="#17110b" stroke-width="3"/>
<rect x="360" y="700" width="172" height="92" rx="4" fill="#241d15" stroke="#17110b" stroke-width="3"/>
<rect x="540" y="700" width="172" height="92" rx="4" fill="#241d15" stroke="#17110b" stroke-width="3"/>
<rect x="720" y="700" width="172" height="92" rx="4" fill="#241d15" stroke="#17110b" stroke-width="3"/>
<rect x="900" y="700" width="172" height="92" rx="4" fill="#241d15" stroke="#17110b" stroke-width="3"/>
<rect x="1080" y="700" width="172" height="92" rx="4" fill="#241d15" stroke="#17110b" stroke-width="3"/>
<rect x="1260" y="700" width="172" height="92" rx="4" fill="#241d15" stroke="#17110b" stroke-width="3"/>
<rect x="1440" y="700" width="172" height="92" rx="4" fill="#241d15" stroke="#17110b" stroke-width="3"/>
<rect x="-90" y="800" width="172" height="92" rx="4" fill="#241d15" stroke="#17110b" stroke-width="3"/>
<rect x="90" y="800" width="172" height="92" rx="4" fill="#241d15" stroke="#17110b" stroke-width="3"/>
<rect x="270" y="800" width="172" height="92" rx="4" fill="#241d15" stroke="#17110b" stroke-width="3"/>
<rect x="450" y="800" width="172" height="92" rx="4" fill="#241d15" stroke="#17110b" stroke-width="3"/>
<rect x="630" y="800" width="172" height="92" rx="4" fill="#241d15" stroke="#17110b" stroke-width="3"/>
<rect x="810" y="800" width="172" height="92" rx="4" fill="#241d15" stroke="#17110b" stroke-width="3"/>
<rect x="990" y="800" width="172" height="92" rx="4" fill="#241d15" stroke="#17110b" stroke-width="3"/>
<rect x="1170" y="800" width="172" height="92" rx="4" fill="#241d15" stroke="#17110b" stroke-width="3"/>
<rect x="1350" y="800" width="172" height="92" rx="4" fill="#241d15" stroke="#17110b" stroke-width="3"/>
<rect x="0" y="900" width="172" height="92" rx="4" fill="#241d15" stroke="#17110b" stroke-width="3"/>
<rect x="180" y="900" width="172" height="92" rx="4" fill="#241d15" stroke="#17110b" stroke-width="3"/>
<rect x="360" y="900" width="172" height="92" rx="4" fill="#241d15" stroke="#17110b" stroke-width="3"/>
<rect x="540" y="900" width="172" height="92" rx="4" fill="#241d15" stroke="#17110b" stroke-width="3"/>
<rect x="720" y="900" width="172" height="92" rx="4" fill="#241d15" stroke="#17110b" stroke-width="3"/>
<rect x="900" y="900" width="172" height="92" rx="4" fill="#241d15" stroke="#17110b" stroke-width="3"/>
<rect x="1080" y="900" width="172" height="92" rx="4" fill="#241d15" stroke="#17110b" stroke-width="3"/>
<rect x="1260" y="900" width="172" height="92" rx="4" fill="#241d15" stroke="#17110b" stroke-width="3"/>
<rect x="1440" y="900" width="172" height="92" rx="4" fill="#241d15" stroke="#17110b" stroke-width="3"/>
  <rect x="1" y="1" width="1598" height="998" fill="none" stroke="#8a6d3b" stroke-width="2" stroke-dasharray="10 6" opacity="0.6"/>
  <text x="800" y="986" text-anchor="middle" font-family="Georgia, serif" font-size="55.55555555555556" fill="#8a6d3b" opacity="0.85">PLACEHOLDER · backdrop.wall · tavern wall, parallax layer</text>
</svg>
