<svg xmlns="http://www.w3.org/2000/svg" viewBox="0 0 200 200">
<defs>
         <radialGradient id="body" cx="0.38" cy="0.3" r="1">
           <stop offset="0%" stop-color="#c9707a"/>
           <stop offset="55%" stop-color="#b54a55"/>
           <stop offset="100%" stop-color="#8f2f3a"/>
         </radialGradient>
       </defs>
       <ellipse cx="100" cy="188" rx="70" ry="10" fill="#000000" opacity="0.3"/>
       <path d="M 100 22 L 169 62 L 169 142 L 100 182 L 31 142 L 31 62 Z"
             fill="url(#body)" stroke="#611f27" stroke-width="5" stroke-linejoin="round"/>
       <path d="M 100 22 L 31 62 L 31 142 Z" fill="#ffffff" opacity="0.12"/>
       <path d="M 100 22 L 169 62 L 169 142 Z" fill="#8f2f3a" opacity="0.55"/>
       <path d="M 31 142 L 100 182 L 169 142 Z" fill="#611f27" opacity="0.5"/>
       <path d="M 100 22 L 169 142 L 31 142 Z"
             fill="none" stroke="#611f27" stroke-width="3.5" opacity="0.8" stroke-linejoin="round"/>
       <path d="M 88 34 Q 100 22 112 34" stroke="#ffffff" stroke-width="6" opacity="0.35"
             fill="none" stroke-linecap="round"/>
       <circle cx="72" cy="70" r="1.6" fill="#f6f2e7" opacity="0.16"/>
<circle cx="128" cy="82" r="2.2" fill="#611f27" opacity="0.16"/>
<circle cx="96" cy="60" r="2.8" fill="#f6f2e7" opacity="0.16"/>
<circle cx="60" cy="128" r="1.6" fill="#611f27" opacity="0.16"/>
<circle cx="142" cy="130" r="2.2" fill="#f6f2e7" opacity="0.16"/>
<circle cx="104" cy="150" r="2.8" fill="#611f27" opacity="0.16"/>
<circle cx="82" cy="108" r="1.6" fill="#f6f2e7" opacity="0.16"/>
<circle cx="120" cy="116" r="2.2" fill="#611f27" opacity="0.16"/>
       <circle cx="80" cy="108" r="13" fill="#f6f2e7"/>
           <circle cx="80" cy="108" r="13" fill="none" stroke="#611f27" stroke-opacity="0.4" stroke-width="2.5"/>
           <circle cx="76" cy="104" r="3.5" fill="#ffffff" opacity="0.85"/>
<circle cx="120" cy="108" r="13" fill="#f6f2e7"/>
           <circle cx="120" cy="108" r="13" fill="none" stroke="#611f27" stroke-opacity="0.4" stroke-width="2.5"/>
           <circle cx="116" cy="104" r="3.5" fill="#ffffff" opacity="0.85"/>
</svg>
