<svg xmlns="http://www.w3.org/2000/svg" viewBox="0 0 512 512" width="512" height="512">
  <defs>
    <radialGradient id="body" cx="0.38" cy="0.3" r="1">
      <stop offset="0%" stop-color="#6e9fce"/>
      <stop offset="55%" stop-color="#4a7fb5"/>
      <stop offset="100%" stop-color="#2f5f92"/>
    </radialGradient>
  </defs>
  <rect width="512" height="512" fill="#17130e"/>
  <g transform="translate(64.00 60.16) scale(1.9200)">
    <path d="M 100 22 L 169 62 L 169 142 L 100 182 L 31 142 L 31 62 Z"
        fill="url(#body)" stroke="#1f4166" stroke-width="5" stroke-linejoin="round"/>
  <path d="M 100 22 L 31 62 L 31 142 Z" fill="#ffffff" opacity="0.12"/>
  <path d="M 100 22 L 169 62 L 169 142 Z" fill="#2f5f92" opacity="0.55"/>
  <path d="M 31 142 L 100 182 L 169 142 Z" fill="#1f4166" opacity="0.5"/>
  <path d="M 100 22 L 169 142 L 31 142 Z"
        fill="none" stroke="#1f4166" stroke-width="3.5" opacity="0.8" stroke-linejoin="round"/>
  <path d="M 88 34 Q 100 22 112 34" stroke="#ffffff" stroke-width="6" opacity="0.35"
        fill="none" stroke-linecap="round"/>
  <circle cx="100" cy="102" r="13" fill="#f6f2e7"/>
       <circle cx="100" cy="102" r="13" fill="none" stroke="#1f4166" stroke-opacity="0.4" stroke-width="2.5"/>
       <circle cx="96" cy="98" r="3.5" fill="#ffffff" opacity="0.85"/>
<circle cx="100" cy="66" r="13" fill="#f6f2e7"/>
       <circle cx="100" cy="66" r="13" fill="none" stroke="#1f4166" stroke-opacity="0.4" stroke-width="2.5"/>
       <circle cx="96" cy="62" r="3.5" fill="#ffffff" opacity="0.85"/>
<circle cx="69" cy="120" r="13" fill="#f6f2e7"/>
       <circle cx="69" cy="120" r="13" fill="none" stroke="#1f4166" stroke-opacity="0.4" stroke-width="2.5"/>
       <circle cx="65" cy="116" r="3.5" fill="#ffffff" opacity="0.85"/>
<circle cx="131" cy="120" r="13" fill="#f6f2e7"/>
       <circle cx="131" cy="120" r="13" fill="none" stroke="#1f4166" stroke-opacity="0.4" stroke-width="2.5"/>
       <circle cx="127" cy="116" r="3.5" fill="#ffffff" opacity="0.85"/>
  </g>
</svg>
